<svg class="svg-icon" style="width: 1em; height: 1em;vertical-align: middle;fill: currentColor;overflow: hidden;" viewBox="0 0 1024 1024" version="1.1" xmlns="http://www.w3.org/2000/svg"><path d="M436.736 837.12v-195.584c0-4.608-1.536-8.704-4.608-11.776-3.072-3.072-7.168-5.12-11.264-5.12H329.728c-4.608 0-8.192 2.048-11.264 5.12-3.072 3.072-4.608 7.168-4.096 11.776v195.584H253.952c-24.576 0-44.544-19.968-44.544-44.544v-276.992h-1.024c-35.328-10.24-59.904-42.496-59.904-79.36v-2.56l65.024-171.008h40.96v-31.232c0-24.576 19.968-44.544 44.544-44.544h425.472c24.576 0 44.544 19.968 44.544 44.544v31.232h40.96L875.52 433.664v2.56c0 36.864-24.576 69.12-59.904 79.36h-1.024v276.992c0 24.576-19.968 44.544-44.544 44.544H436.736z m-138.24-353.28c-13.824 19.968-35.84 32.256-59.904 34.816h-1.024v274.432c0 9.216 7.168 16.384 16.384 16.384h31.232v-167.936c0-24.576 19.968-44.544 44.544-44.544h91.136c24.576 0 44.544 19.968 44.544 44.544V808.96h305.152c9.216 0 16.384-7.168 16.384-16.384v-274.432h-1.024c-24.576-2.048-47.104-14.336-61.44-34.816l-1.024-1.024-1.024 1.024c-5.632 7.68-12.288 14.336-19.968 19.968-13.824 9.728-30.208 14.848-47.104 14.848-27.136 0-52.224-13.312-68.096-35.328l-1.024-1.024-1.024 1.024c-4.608 5.632-9.728 11.264-15.872 15.872-16.896 13.312-37.376 20.48-58.88 20.48-29.184 0-56.32-13.312-74.24-35.84l-1.024-1.024v0.512c-5.632 7.68-12.288 14.848-19.968 19.968-13.824 10.24-30.72 15.36-47.616 15.36-26.624 0-51.712-12.8-67.072-34.816l-1.024-1.024-1.024 1.536z m-121.856-45.568c1.024 30.208 24.576 53.248 54.272 53.248h1.024c29.696-0.512 53.248-24.576 53.248-54.272h28.16c0.512 29.184 24.576 53.248 54.272 53.248s53.76-23.552 54.272-53.248h28.16c2.56 29.696 28.16 53.248 58.368 53.248h7.168c30.208 0 55.296-23.552 58.368-53.248h28.16c1.024 29.184 24.576 52.736 53.76 52.736h0.512c29.184 0 53.248-23.552 54.272-52.736h28.16c0.512 29.184 24.576 53.248 54.272 53.248 29.184 0 52.736-22.528 54.272-51.712l-56.32-147.456h-558.08l-56.32 146.944z m122.88-223.232c-9.216 0-16.384 7.168-16.384 16.384v31.232h457.728v-31.232c0-9.216-7.168-16.384-16.384-16.384h-424.96z" fill="#505C71" /><path d="M694.272 595.456h-136.704c-25.088 0-45.568 20.48-45.568 45.568V716.8c0 25.088 20.48 45.568 45.568 45.568h136.704c25.088 0 45.568-20.48 45.568-45.568v-75.776c0-25.088-20.48-45.568-45.568-45.568z" fill="#EA6055" /><path d="M340.48 699.904H409.6c8.192 0 14.336 6.656 14.336 14.336v32.768c0 8.192-6.656 14.336-14.336 14.336H340.48c-8.192 0-14.336-6.656-14.336-14.336v-32.768c0-7.68 6.656-14.336 14.336-14.336z" fill="#F0993E" /></svg>